<svg version="1.2" xmlns="http://www.w3.org/2000/svg" viewBox="0 0 1500 1000" width="3240" height="2160"><defs><linearGradient id="P" gradientUnits="userSpaceOnUse"/><radialGradient id="g1" cx="1172.7" cy="-487.5" r="2953.3" href="#P"><stop offset=".01" stop-color="#501905"/><stop offset=".58" stop-color="#721206"/><stop offset="1" stop-color="#e5c33f"/></radialGradient><clipPath clipPathUnits="userSpaceOnUse" id="cp1"><path d="m1500 1000h-1500v-1000h1500z"/></clipPath><linearGradient id="g2" x1="879.8" y1="-153.2" x2="1714.3" y2="2215.9" href="#P"><stop/><stop offset=".96" stop-color="#00fffd"/></linearGradient><linearGradient id="g3" x1="731.2" y1="1093.7" x2="-103.3" y2="-1275.4" href="#P"><stop/><stop offset=".96" stop-color="#00fffd"/></linearGradient><linearGradient id="g4" x1="-125.6" y1="624.8" x2="442.5" y2="363.4" href="#P"><stop/><stop offset="1" stop-color="#f21a76"/></linearGradient><linearGradient id="g5" x1="1625.6" y1="375.2" x2="1057.5" y2="636.6" href="#P"><stop/><stop offset=".96" stop-color="#00fffd"/></linearGradient><linearGradient id="g6" x1="872.7" y1="1084.2" x2="910.8" y2="1122.3" href="#P"><stop/><stop offset="1" stop-color="#fff"/></linearGradient><linearGradient id="g7" x1="-95.5" y1="521.7" x2="-80.1" y2="537" href="#P"><stop/><stop offset="1" stop-color="#fff"/></linearGradient><linearGradient id="g8" x1="-251.7" y1="498" x2="39.2" y2="163" href="#P"><stop/><stop offset="1" stop-color="#f21a76"/></linearGradient><linearGradient id="g9" x1="1694.4" y1="448.1" x2="1517.7" y2="847" href="#P"><stop/><stop offset=".96" stop-color="#00fffd"/></linearGradient><linearGradient id="g10" x1="205.9" y1="1114.7" x2="579.5" y2="730" href="#P"><stop/><stop offset="1" stop-color="#f21a76"/></linearGradient><linearGradient id="g11" x1="7469.8" y1="6457.5" x2="7268.5" y2="6653.7" href="#P"><stop/><stop offset=".99" stop-color="#00fffd"/></linearGradient><linearGradient id="g12" x1="8817.2" y1="7905.8" x2="8569.7" y2="8147.2" href="#P"><stop/><stop offset=".99" stop-color="#00fffd"/></linearGradient><linearGradient id="g13" x1="1224.6" y1="807.3" x2="606.8" y2="1425.1" href="#P"><stop/><stop offset=".96" stop-color="#00fffd"/></linearGradient></defs><style>.a{fill:url(#g1)}.b{fill:#041b33}.c{fill:#08233b}.d{fill:#e1e1e1}.e{mix-blend-mode:screen;fill:url(#g2)}.f{mix-blend-mode:screen;fill:url(#g3)}.g{fill:#f2c562}.h{mix-blend-mode:screen;fill:url(#g4)}.i{mix-blend-mode:screen;fill:url(#g5)}.j{fill:#a9cde7}.k{opacity:.3;mix-blend-mode:multiply;fill:url(#g6)}.l{opacity:.3;mix-blend-mode:multiply;fill:url(#g7)}.m{mix-blend-mode:screen;fill:url(#g8)}.n{mix-blend-mode:screen;fill:url(#g9)}.o{mix-blend-mode:screen;fill:url(#g10)}.p{mix-blend-mode:screen;fill:url(#g11)}.q{mix-blend-mode:screen;fill:url(#g12)}.r{mix-blend-mode:screen;fill:url(#g13)}</style><path class="a" d="m1500 1000h-1500v-1000h1500z"/><path class="b" d="m1500 1000h-1500v-1000h1500z"/><path class="c" d="m1500 1000h-1500v-1000h1500z"/><g clip-path="url(#cp1)"><path class="d" d="m1503 2011.7h-1500v-1000h1500z"/><path class="b" d="m1500 457.1v-457.1h-957.1l-542.9 542.9v457.1h957.1z"/><path class="b" d="m1500 457.1v-457.1h-957.1l-542.9 542.9v457.1h957.1z"/><path class="e" d="m305.5 1497.9l-182.7-182.7 769.5-769.4c50.4-50.4 132.2-50.4 182.6 0 50.5 50.4 50.5 132.2 0 182.7z"/><path class="f" d="m1305.5-557.4l182.6 182.6-769.4 769.5c-50.4 50.4-132.2 50.4-182.6 0-50.5-50.5-50.5-132.2 0-182.7z"/><path class="g" d="m195.5 1091.1c-1.7-1.7-1.7-4.4 0-6.1l236.8-236.8c1.7-1.7 4.4-1.7 6.1 0 1.7 1.7 1.7 4.4 0 6.1l-236.8 236.8c-1.7 1.7-4.4 1.7-6.1 0z"/><path class="g" d="m195.5 1125.5c-1.7-1.7-1.7-4.4 0-6.1l236.8-236.8c1.7-1.7 4.4-1.7 6.1 0 1.7 1.6 1.7 4.4 0 6l-236.8 236.9c-1.7 1.6-4.4 1.6-6.1 0z"/><path class="g" d="m1131.9 92.9c-1.7-1.7-1.7-4.4 0-6.1l236.8-236.8c1.7-1.7 4.4-1.7 6.1 0 1.6 1.7 1.6 4.4 0 6.1l-236.9 236.8c-1.6 1.7-4.4 1.7-6 0z"/><path class="g" d="m1131.9 127.2c-1.7-1.6-1.7-4.4 0-6l236.8-236.9c1.7-1.6 4.4-1.6 6.1 0 1.6 1.7 1.6 4.4 0 6.1l-236.9 236.8c-1.6 1.7-4.4 1.7-6 0z"/><path class="h" d="m0 567v433h433c0-238.8-194.2-433-433-433z"/><path class="i" d="m1500 433v-433h-433c0 238.8 194.2 433 433 433z"/><path class="g" d="m318 1000.2c-0.8-0.8-2-0.8-2.8 0-0.8 0.8-0.8 2 0 2.8 0.8 0.8 2 0.8 2.8 0 0.8-0.8 0.8-2 0-2.8z"/><path class="g" d="m330.8 1012.9c-0.8-0.7-2.1-0.7-2.9 0-0.8 0.8-0.8 2.1 0 2.9 0.8 0.8 2.1 0.8 2.9 0 0.7-0.8 0.7-2.1 0-2.9z"/><path class="j" d="m-2.4 755.2c-1.5-1.4-3.8-1.4-5.2 0-1.4 1.4-1.4 3.7 0 5.2 1.4 1.4 3.7 1.4 5.2 0 1.4-1.5 1.4-3.8 0-5.2z"/><path class="j" d="m-30.7 783.5c-1.4-1.4-3.7-1.4-5.1 0-1.5 1.4-1.5 3.7 0 5.1 1.4 1.4 3.7 1.4 5.1 0 1.4-1.4 1.4-3.7 0-5.1z"/><path class="j" d="m-59 811.8c-1.4-1.5-3.7-1.5-5.1 0-1.4 1.4-1.4 3.7 0 5.1 1.4 1.4 3.7 1.4 5.1 0 1.5-1.4 1.5-3.7 0-5.1z"/><path class="j" d="m-87.2 840c-1.4-1.4-3.7-1.4-5.2 0-1.4 1.4-1.4 3.7 0 5.2 1.5 1.4 3.8 1.4 5.2 0 1.4-1.5 1.4-3.8 0-5.2z"/><path class="d" d="m1564.9 80.3c1.5 1.5 3.8 1.5 5.2 0 1.4-1.4 1.4-3.7 0-5.1-1.4-1.4-3.7-1.4-5.2 0-1.4 1.4-1.4 3.7 0 5.1z"/><path class="d" d="m1541.8 103.5c-1.4-1.5-3.7-1.5-5.1 0-1.4 1.4-1.4 3.7 0 5.1 1.4 1.4 3.7 1.4 5.1 0 1.4-1.4 1.4-3.7 0-5.1z"/><path class="d" d="m1513.6 131.7c-1.5-1.4-3.8-1.4-5.2 0-1.4 1.4-1.4 3.7 0 5.2 1.4 1.4 3.7 1.4 5.2 0 1.4-1.5 1.4-3.8 0-5.2z"/><path class="k" d="m872.7 1084.2q19.1 19 38.1 38.1 16-18.4 32.1-36.8c-12.6-12.6-23-23.4-35.5-36q-17.4 17.4-34.7 34.7zm34.7-34.7c12.5 12.6 22.9 23.4 35.5 36 174.4-199.9 352.4-396.8 526.3-597.1q1.6-2 3.2-3.9-282.5 282.5-565 565zm3.4 72.8q9.5 9.5 19 19 15.6-18.8 31.1-37.6c-6.3-6.3-11.8-11.9-18-18.2q-16.1 18.4-32.1 36.8zm32.1-36.8c6.2 6.3 11.7 11.9 18 18.2q253.3-306.7 506.7-613.3 0.8-1 1.6-2c-173.9 200.3-351.9 397.2-526.3 597.1z"/><path class="l" d="m-95.5 521.7q7.7 7.6 15.4 15.3 6.4-7.4 12.9-14.8c-5.1-5.1-9.3-9.4-14.3-14.5q-7 7-14 14zm14-14c5 5.1 9.2 9.4 14.3 14.5 70.3-80.6 142.1-160 212.2-240.8q0.7-0.8 1.3-1.6-113.9 114-227.8 227.9zm1.4 29.3q3.8 3.9 7.6 7.7 6.3-7.6 12.6-15.2c-2.6-2.5-4.8-4.8-7.3-7.3q-6.5 7.4-12.9 14.8zm12.9-14.8c2.5 2.5 4.7 4.8 7.3 7.3q102.1-123.6 204.3-247.3 0.3-0.4 0.6-0.8c-70.1 80.8-141.9 160.2-212.2 240.8z"/><path class="m" d="m-26.5 452.3l-18.3-18.3 170.5-170.5c5-5 13.2-5 18.3 0 5 5.1 5 13.2 0 18.3z"/><path class="n" d="m1578 477.1l18.3 18.2-170.5 170.5c-5.1 5.1-13.2 5.1-18.3 0-5-5-5-13.2 0-18.2z"/><path class="o" d="m451.7 1078.9l-12.6-12.7 189-189c3.5-3.5 9.1-3.5 12.6 0 3.5 3.5 3.5 9.2 0 12.6z"/><path class="p" d="m1327.6 139c0.8 0.8 0.8 2 0 2.8l-183.7 183.7c-0.7 0.7-2 0.7-2.8 0-0.7-0.8-0.7-2.1 0-2.8l183.7-183.7c0.8-0.8 2-0.8 2.8 0z"/><path class="q" d="m1264.6 136.3c1 0.9 1 2.5 0 3.4l-225.9 225.9c-0.9 1-2.5 1-3.4 0-1-0.9-1-2.4 0-3.4l225.9-225.9c0.9-0.9 2.5-0.9 3.4 0z"/><g style="mix-blend-mode:screen"></g><path class="r" d="m558.4 1155.4c-4.8-4.8-4.8-12.6 0-17.4l293.5-293.4c4.8-4.8 12.6-4.8 17.4 0 4.8 4.8 4.8 12.6 0 17.4l-293.5 293.4c-4.8 4.8-12.6 4.8-17.4 0z"/></g></svg>